<?xml version="1.0" standalone="no"?><!DOCTYPE svg PUBLIC "-//W3C//DTD SVG 1.1//EN" "http://www.w3.org/Graphics/SVG/1.1/DTD/svg11.dtd"><svg t="1543808419439" class="icon" style="" viewBox="0 0 1024 1024" version="1.1" xmlns="http://www.w3.org/2000/svg" p-id="749" xmlns:xlink="http://www.w3.org/1999/xlink" width="64" height="64"><defs><style type="text/css"></style></defs><path d="M491.3 276c0-2.9-4.4-8.7-7.3-10.2-2.9-2.9-7.3-2.9-13.1-2.9-23.3 4.4-43.7 11.7-64.1 21.8-18.9 10.2-37.9 21.8-55.3 37.9-16 13.1-32 30.6-45.2 49.5-11.7 18.9-23.3 48.1-32 64.1-21.8 10.2-85.9 35-85.9 35s-17.5 7.3-23.3 14.6c-7.3 8.7-8.7 23.3-8.7 29.1 0 20.4 1.5 40.8 4.4 61.2 5.8 20.4 10.2 39.3 18.9 58.3 8.7 18.9 18.9 36.4 32 53.9 11.7 14.6 46.6 49.5 46.6 49.5s-1.5 55.3 4.4 87.4c1.5 10.2 5.8 18.9 8.7 21.8 16 16 61.2 26.2 81.6 27.7 52.4 1.5 88.8-4.4 119.4-14.6 17.5-5.8 46.6-23.3 53.9-27.7h2.9l84.5 32c4.4 1.5 16 0 20.4-2.9 4.4-2.9 13.1-16 17.5-20.4 17.5-18.9 43.7-83 49.5-112.1 4.4-20.4 5.8-39.3 5.8-59.7-1.5-20.4-2.9-40.8-8.7-59.7-1.5-4.4 0-7.3 0-8.7 1.5-2.9 65.5-84.5 71.4-110.7 1.5-11.7-5.8-23.3-8.7-27.7-21.8-30.6-62.6-65.5-96.1-84.5-18.9-10.2-39.3-16-59.7-21.8-21.8-5.8-43.7-8.7-64.1-8.7-4.4 0-10.2 2.9-13.1 5.8L491.3 276z m206.8 324.8" fill="#FDCC02" p-id="750"></path><path d="M831.1 555c2-3.9 88.7-114.3 96.6-149.8 2-15.8-7.9-31.5-11.8-37.4-29.6-41.4-84.8-88.7-130.1-114.3-25.6-13.8-53.2-21.7-80.8-29.6-29.6-7.9-59.1-11.8-86.7-11.8-5.9 0-13.8 3.9-17.7 7.9-5.9 3.9-7.9 9.9-7.9 17.7 0 5.9 3.9 11.8 7.9 15.8 3.9 5.9 9.9 7.9 17.7 7.9 21.7 0 47.3 3.9 74.9 5.9 23.6 5.9 47.3 15.8 71 27.6 23.7 11.8 108.4 72.9 110.4 104.5-3.9 19.7-92.6 139.9-92.6 139.9-5.9 7.9-3.9 13.8-2 21.7 15.8 47.3 13.8 122.2 5.9 157.7-5.9 23.7-11.8 45.3-21.7 67-9.9 23.7-27.6 55.2-43.4 71-9.9-2-96.6-41.4-106.4-43.4-5.9 0-11.8 0-15.8 2-27.6 13.8-126.1 57.2-159.7 59.1-21.7 2-45.3 2-69 0-23.7-2-59.1-9.9-72.9-21.7-11.8-9.9-3.9-120.2-11.8-134-7.9-13.8-59.1-59.1-71-76.9-15.8-19.7-27.6-39.4-37.5-61.1-11.8-21.7-19.7-45.3-23.7-69-3.9-25.6-5.9-74.9-3.9-78.8 0 0 134-57.2 139.9-65 11.8-9.9 37.4-71 51.2-92.6 13.8-21.7 33.5-43.4 51.2-59.1 21.7-17.7 43.4-31.5 71-45.3 21.7-11.8 45.3-21.7 71-25.6 5.9-2 11.8-3.9 15.8-11.8 2-3.9 3.9-9.9 2-17.7 0-3.9-5.9-11.8-9.9-13.8-3.9-3.9-9.9-3.9-17.7-3.9-31.5 5.9-59.1 15.8-86.7 29.6-25.6 13.8-51.3 29.6-74.9 51.3-21.7 17.7-43.4 41.4-61.1 67-15.8 25.6-31.5 65-43.4 86.7-29.5 13.3-116.3 46.8-116.3 46.8s-23.7 9.9-31.5 19.7c-9.9 11.8-11.8 31.5-11.8 39.4 0 27.6 2 55.2 5.9 82.8 7.9 27.6 13.8 53.2 25.6 78.8 11.8 25.6 25.6 49.3 43.4 72.9 15.8 19.7 63.1 67 63.1 67s-2 74.9 5.9 118.3c2 13.8 7.9 25.6 11.8 29.6 21.7 21.7 82.8 35.5 110.4 37.5 71 2 120.2-5.9 161.6-19.7 23.6-7.9 63.1-31.5 72.9-37.5h3.9l114.3 43.4c5.9 2 21.7 0 27.6-3.9 5.9-3.9 17.7-21.7 23.7-27.6 23.6-25.6 59.1-112.3 67-151.8 5.9-27.6 7.9-53.2 7.9-80.8-2-27.6-3.9-55.2-11.8-80.8-2-5.9 0-9.9 0-11.8z m0 0" fill="" p-id="751"></path><path d="M580.8 531.3c-0.1 17.7 9.3 34 24.6 42.8 15.3 8.8 34.1 8.8 49.4 0 15.3-8.8 24.7-25.2 24.6-42.8 0.1-17.7-9.3-34-24.6-42.8-15.3-8.8-34.1-8.8-49.4 0-15.3 8.8-24.7 25.2-24.6 42.8zM348.2 622c4.7 4.7 11.1 7.4 17.7 7.4s13-2.7 17.7-7.4l69-69c7.9-7.9 7.9-21.7-2-29.6l-76.9-57.2c-11.8-7.9-25.6-5.9-33.5 5.9-7.9 11.8-5.9 25.6 5.9 33.5l47.3 35.5-45.3 45.3c-4.7 4.7-7.4 11.1-7.4 17.7 0.1 6.8 2.8 13.2 7.5 17.9z m0 0" fill="" p-id="752"></path></svg>