<?xml version="1.0" standalone="no"?><!DOCTYPE svg PUBLIC "-//W3C//DTD SVG 1.1//EN" "http://www.w3.org/Graphics/SVG/1.1/DTD/svg11.dtd"><svg t="1543808446605" class="icon" style="" viewBox="0 0 1186 1024" version="1.1" xmlns="http://www.w3.org/2000/svg" p-id="893" xmlns:xlink="http://www.w3.org/1999/xlink" width="74.125" height="64"><defs><style type="text/css"></style></defs><path d="M183.242105 490.442105c-8.084211 0-13.473684-2.694737-18.863158-8.08421-8.084211-10.778947-8.084211-26.947368 2.694737-37.726316L660.210526 21.557895c10.778947-8.084211 24.252632-8.084211 35.031579 0l482.357895 423.073684c10.778947 10.778947 10.778947 26.947368 2.694737 37.726316-10.778947 10.778947-26.947368 10.778947-37.726316 2.694737L679.073684 75.452632 199.410526 482.357895c-2.694737 5.389474-10.778947 8.084211-16.168421 8.08421z" fill="#A3D900" p-id="894"></path><path d="M1075.2 355.705263v517.389474c0 75.452632-48.505263 137.431579-105.094737 137.431579H369.178947c-59.284211 0-105.094737-61.978947-105.094736-137.431579V355.705263" fill="#A3D900" p-id="895"></path><path d="M293.726316 396.126316c-16.168421 0-32.336842-13.473684-32.336842-32.336842v-107.789474c0-16.168421 13.473684-32.336842 32.336842-32.336842 16.168421 0 32.336842 13.473684 32.336842 32.336842v110.484211c0 16.168421-13.473684 29.642105-32.336842 29.642105zM1045.557895 396.126316c-16.168421 0-32.336842-13.473684-32.336842-32.336842v-107.789474c0-16.168421 13.473684-32.336842 32.336842-32.336842 16.168421 0 32.336842 13.473684 32.336842 32.336842v110.484211c-2.694737 16.168421-16.168421 29.642105-32.336842 29.642105z" fill="#A3D900" p-id="896"></path><path d="M336.842105 377.263158v-45.810526L662.905263 53.894737h29.642105l334.147369 291.031579v64.673684z" fill="#A3D900" p-id="897"></path><path d="M26.947368 490.442105c-8.084211 0-13.473684-2.694737-18.863157-8.08421-8.084211-10.778947-8.084211-26.947368 2.694736-37.726316L503.915789 21.557895c10.778947-8.084211 24.252632-8.084211 35.031579 0l482.357895 423.073684c10.778947 10.778947 10.778947 26.947368 2.694737 37.726316s-26.947368 10.778947-37.726316 2.694737L520.084211 75.452632 43.115789 482.357895c-5.389474 5.389474-10.778947 8.084211-16.168421 8.08421zM797.642105 1007.831579H247.915789c-70.063158 0-126.652632-56.589474-126.652631-126.652632V520.084211c0-16.168421 13.473684-29.642105 29.642105-29.642106s29.642105 13.473684 29.642105 29.642106v361.094736c0 37.726316 29.642105 70.063158 70.063158 70.063158h549.726316c37.726316 0 70.063158-29.642105 70.063158-70.063158V520.084211c0-16.168421 13.473684-29.642105 29.642105-29.642106s29.642105 13.473684 29.642106 29.642106v361.094736c-8.084211 70.063158-64.673684 126.652632-132.042106 126.652632z" fill="#333333" p-id="898"></path><path d="M358.4 444.631579a45.810526 32.336842 90 1 0 64.673684 0 45.810526 32.336842 90 1 0-64.673684 0Z" fill="#333333" p-id="899"></path><path d="M625.178947 444.631579a45.810526 32.336842 90 1 0 64.673685 0 45.810526 32.336842 90 1 0-64.673685 0Z" fill="#333333" p-id="900"></path><path d="M522.778947 644.042105c-59.284211 0-107.789474-48.505263-107.789473-107.789473 0-10.778947 10.778947-21.557895 21.557894-21.557895s21.557895 10.778947 21.557895 21.557895c0 35.031579 29.642105 64.673684 64.673684 64.673684 35.031579 0 64.673684-29.642105 64.673685-64.673684 0-10.778947 10.778947-21.557895 21.557894-21.557895s21.557895 10.778947 21.557895 21.557895c0 59.284211-48.505263 107.789474-107.789474 107.789473zM137.431579 377.263158c-16.168421 0-32.336842-13.473684-32.336842-32.336842V256c0-16.168421 13.473684-32.336842 32.336842-32.336842 16.168421 0 32.336842 13.473684 32.336842 32.336842v91.621053c0 16.168421-16.168421 29.642105-32.336842 29.642105zM886.568421 377.263158c-16.168421 0-32.336842-13.473684-32.336842-32.336842V256c0-16.168421 13.473684-32.336842 32.336842-32.336842 16.168421 0 32.336842 13.473684 32.336842 32.336842v91.621053c0 16.168421-13.473684 29.642105-32.336842 29.642105z" fill="#333333" p-id="901"></path></svg>