<?xml version="1.0" standalone="no"?><!DOCTYPE svg PUBLIC "-//W3C//DTD SVG 1.1//EN" "http://www.w3.org/Graphics/SVG/1.1/DTD/svg11.dtd"><svg t="1543808467192" class="icon" style="" viewBox="0 0 1024 1024" version="1.1" xmlns="http://www.w3.org/2000/svg" p-id="1010" xmlns:xlink="http://www.w3.org/1999/xlink" width="64" height="64"><defs><style type="text/css"></style></defs><path d="M202.24 307.2c-16.896 0-34.304 14.848-36.352 32.256l-32.256 568.832c0 8.704 2.048 16.896 8.704 23.552 6.656 6.656 12.8 8.704 21.504 8.704h608.768c8.704 0 16.896-4.096 21.504-8.704 6.656-6.656 8.704-14.848 8.704-23.552l-39.424-568.832c-2.048-19.456-16.896-32.256-36.352-32.256H202.24z" fill="#FB5754" p-id="1011"></path><path d="M842.752 972.8H181.76c-22.016 0-41.984-8.704-56.832-24.064-14.848-15.872-22.016-36.352-20.992-58.368l40.448-582.144c2.56-44.032 39.936-78.336 84.992-78.336h562.688c45.056 0 82.432 34.304 84.992 78.336l43.52 582.144c1.536 22.016-6.144 42.496-20.992 58.368-14.848 15.36-34.816 24.064-56.832 24.064zM229.376 270.336c-23.04 0-43.008 17.92-44.032 39.936l-40.448 582.144c-0.512 10.752 3.072 20.48 9.728 27.648 7.168 7.68 16.896 11.776 27.136 11.776h660.992c10.752 0 19.968-4.096 27.136-11.776 7.168-7.168 10.24-17.408 9.728-27.648l-43.52-582.144c-1.536-22.016-21.504-40.448-44.544-40.448 0 0.512-562.176 0.512-562.176 0.512z" fill="#333333" p-id="1012"></path><path d="M512 694.272c-104.96 0-189.952-84.992-189.952-189.952 0-11.264 9.216-20.48 20.48-20.48s20.48 9.216 20.48 20.48c0 82.432 67.072 149.504 149.504 149.504s149.504-67.072 149.504-149.504c0-11.264 9.216-20.48 20.48-20.48s20.48 9.216 20.48 20.48c-1.024 104.448-86.016 189.952-190.976 189.952zM512 51.2c104.96 0 189.952 85.504 189.952 189.952 0 11.264-9.216 20.48-20.48 20.48s-20.48-9.216-20.48-20.48c0-82.432-67.072-149.504-149.504-149.504S362.496 158.72 362.496 241.152c0 11.264-9.216 20.48-20.48 20.48s-20.48-9.216-20.48-20.48C322.048 136.192 407.552 51.2 512 51.2z" fill="#333333" p-id="1013"></path></svg>