<?xml version="1.0" standalone="no"?><!DOCTYPE svg PUBLIC "-//W3C//DTD SVG 1.1//EN" "http://www.w3.org/Graphics/SVG/1.1/DTD/svg11.dtd"><svg t="1543820356859" class="icon" style="" viewBox="0 0 1024 1024" version="1.1" xmlns="http://www.w3.org/2000/svg" p-id="1464" xmlns:xlink="http://www.w3.org/1999/xlink" width="64" height="64"><defs><style type="text/css"></style></defs><path d="M661.5 443L491 336.2c-57.6-36.3-106.6-12.1-106.6 54.4v241.8c0 66.5 46.9 90.7 106.6 54.4L661.5 580c57.6-40.3 57.6-100.7 0-137z" fill="#ffffff" p-id="1465"></path><path d="M512 0C230.4 0 0 230.4 0 512s230.4 512 512 512 512-230.4 512-512S793.6 0 512 0z m0 981.3C253.9 981.3 42.7 770.1 42.7 512S253.9 42.7 512 42.7 981.3 253.9 981.3 512 770.1 981.3 512 981.3z" fill="#ffffff" p-id="1466"></path></svg>