<?xml version="1.0" standalone="no"?><!DOCTYPE svg PUBLIC "-//W3C//DTD SVG 1.1//EN" "http://www.w3.org/Graphics/SVG/1.1/DTD/svg11.dtd"><svg t="1543808406318" class="icon" style="" viewBox="0 0 1024 1024" version="1.1" xmlns="http://www.w3.org/2000/svg" p-id="988" xmlns:xlink="http://www.w3.org/1999/xlink" width="64" height="64"><defs><style type="text/css"></style></defs><path d="M512 148.992c-200.704 0-363.008 162.304-363.008 363.008s162.304 363.008 363.008 363.008 363.008-162.304 363.008-363.008-162.304-363.008-363.008-363.008z m142.336 395.776l-184.832 120.32c-25.088 16.384-58.88-1.536-58.88-31.744v-240.64c0-30.72 33.792-48.64 58.88-32.256l184.832 120.32c23.04 14.848 23.04 48.64 0 64z" fill="#FFC832" p-id="989"></path><path d="M513.024 900.608c-33.792 0-68.096-4.608-101.376-13.312-100.352-26.624-184.32-91.136-236.032-181.248-51.712-90.112-65.536-194.56-38.4-294.4 26.624-100.352 91.136-184.32 180.736-236.032 90.112-51.712 194.56-65.536 294.912-38.4 36.352 9.728 71.168 24.576 106.496 45.568 12.288 7.168 15.872 23.04 8.704 35.328-7.168 12.288-23.04 15.872-35.328 8.704-30.72-18.432-61.44-31.744-93.184-40.448-87.04-23.552-178.176-11.776-256 33.28-77.824 45.056-133.632 117.76-157.184 204.8-23.552 87.04-11.776 177.664 33.28 256 45.056 78.336 117.76 134.144 204.8 157.184 87.04 23.552 177.664 11.776 256-33.28 78.336-45.056 134.144-117.76 157.184-204.8 15.36-56.32 15.872-115.2 1.536-169.984-3.584-13.824 4.608-27.648 18.432-31.232 13.824-3.584 27.648 4.608 31.232 18.432 16.896 63.488 16.384 131.584-1.536 196.608-26.624 100.352-91.136 184.32-181.248 236.032-59.904 33.792-125.952 51.2-193.024 51.2z" fill="#4D4D4D" p-id="990"></path><path d="M805.888 294.4m-36.352 0a36.352 36.352 0 1 0 72.704 0 36.352 36.352 0 1 0-72.704 0Z" fill="#4D4D4D" p-id="991"></path><path d="M449.024 696.832c-10.24 0-20.992-2.56-30.208-7.68-20.48-11.264-33.28-32.256-33.28-55.808v-240.64c0-23.552 12.8-45.056 33.28-56.32 20.48-11.264 45.568-10.24 65.024 2.56l184.832 120.32c17.92 11.776 28.672 31.232 28.672 52.736 0 21.504-10.752 41.984-28.672 53.76l-184.832 120.32c-10.752 7.168-22.528 10.752-34.816 10.752z m0-317.44c-2.56 0-5.12 1.024-6.144 1.536-2.56 1.536-6.656 4.608-6.656 11.264v240.64c0 6.144 4.096 9.216 6.656 10.752 2.048 1.024 7.168 3.072 12.8-0.512l184.832-120.32c5.12-3.584 5.632-8.704 5.632-10.752 0-2.56-0.512-7.168-5.632-10.24l-184.832-120.32c-2.56-1.536-4.608-2.048-6.656-2.048z" fill="#4D4D4D" p-id="992"></path></svg>