<?xml version="1.0" standalone="no"?><!DOCTYPE svg PUBLIC "-//W3C//DTD SVG 1.1//EN" "http://www.w3.org/Graphics/SVG/1.1/DTD/svg11.dtd"><svg t="1543822895276" class="icon" style="" viewBox="0 0 1024 1024" version="1.1" xmlns="http://www.w3.org/2000/svg" p-id="2092" xmlns:xlink="http://www.w3.org/1999/xlink" width="64" height="64"><defs><style type="text/css"></style></defs><path d="M512 512m-512 0a512 512 0 1 0 1024 0 512 512 0 1 0-1024 0Z" fill="#F54B4B" p-id="2093"></path><path d="M634.88 327.68c22.528 0 40.96 18.432 40.96 40.96v286.72c0 22.528-18.432 40.96-40.96 40.96s-40.96-18.432-40.96-40.96V368.64c0-22.528 18.432-40.96 40.96-40.96zM399.36 327.68c22.528 0 40.96 18.432 40.96 40.96v286.72c0 22.528-18.432 40.96-40.96 40.96s-40.96-18.432-40.96-40.96V368.64c0-22.528 18.432-40.96 40.96-40.96z" fill="#FFFFFF" p-id="2094"></path></svg>