<?xml version="1.0" standalone="no"?><!DOCTYPE svg PUBLIC "-//W3C//DTD SVG 1.1//EN" "http://www.w3.org/Graphics/SVG/1.1/DTD/svg11.dtd"><svg t="1543808588280" class="icon" style="" viewBox="0 0 1024 1024" version="1.1" xmlns="http://www.w3.org/2000/svg" p-id="1900" xmlns:xlink="http://www.w3.org/1999/xlink" width="64" height="64"><defs><style type="text/css"></style></defs><path d="M733.866667 503.466667L392.533333 307.2c-3.413333-3.413333-8.533333-3.413333-11.946666 0-3.413333 0-8.533333 3.413333-8.533334 8.533333v392.533334c0 3.413333 3.413333 8.533333 3.413334 8.533333 3.413333 3.413333 8.533333 3.413333 11.946666 0L733.866667 520.533333c3.413333-3.413333 3.413333-3.413333 3.413333-8.533333 3.413333-3.413333 0-8.533333-3.413333-8.533333z" fill="#ffffff" p-id="1901"></path><path d="M512 0C228.693333 0 0 228.693333 0 512s228.693333 512 512 512 512-228.693333 512-512S795.306667 0 512 0z m0 991.573333C245.76 991.573333 32.426667 778.24 32.426667 512 32.426667 245.76 245.76 32.426667 512 32.426667c266.24 0 479.573333 213.333333 479.573333 479.573333 0 266.24-213.333333 479.573333-479.573333 479.573333z" fill="#ffffff" p-id="1902"></path></svg>